<svg width="400" height="56" viewBox="0 0 400 56" fill="none" xmlns="http://www.w3.org/2000/svg">
<g clip-path="url(#clip0_14877_187240)">
<path d="M380.988 45.8582L382.447 41.9477L369.547 9.60156H375.594L385.095 36.2189H385.221L394.346 9.60156H400.009L385.708 46.9329C384.633 49.3069 383.62 50.7821 382.504 51.9017C380.13 54.288 377.237 55.5792 373.425 55.5792V51.2479C376.052 51.2479 378.034 50.4306 379.382 48.6205C380.018 47.7616 380.556 46.8352 380.988 45.8582Z" fill="white"/>
<path d="M116.648 27.1183C116.648 21.4631 115.316 16.9887 112.692 13.8097C110.069 10.6306 106.269 8.90625 101.541 8.90625C96.8134 8.90625 92.8702 10.651 89.969 13.9895C87.2272 17.1603 85.8379 21.1934 85.8379 25.9742C85.8379 30.9267 87.0964 34.9352 89.589 37.9059C92.3349 41.1544 96.3639 42.8093 101.545 42.8093C105.631 42.8093 108.974 41.7591 111.499 39.6793C113.644 37.9018 115.275 35.3234 116.341 32.0095L116.644 31.0615H110.809L110.665 31.6295C110.227 33.5684 109.073 35.2702 107.433 36.394C105.693 37.5597 103.635 38.1565 101.541 38.102C98.2721 38.102 95.7714 37.0927 93.953 34.9965C92.3758 33.1822 91.5013 30.7796 91.4033 27.8539H116.648V27.1183ZM101.529 13.6339C104.593 13.6339 106.918 14.6473 108.647 16.7354C110.102 18.4843 110.894 20.7439 111.017 23.453H91.485C91.8448 20.997 92.8756 18.688 94.4638 16.7803C95.3264 15.751 96.4118 14.9313 97.638 14.3833C98.8641 13.8354 100.199 13.5736 101.541 13.6176L101.529 13.6339Z" fill="white"/>
<path d="M132.31 14.4201H139.506V9.10809H131.91V5.5858C131.91 -7.01439e-06 126.435 0 126.435 0V9.10809H121.18V14.4201H126.435V30.062C126.435 33.9234 127.697 37.0494 130.182 39.3662C132.666 41.6831 135.677 42.7986 139.49 42.7986V37.6173C136.862 37.6173 134.917 36.7593 133.532 34.9899C132.42 33.5274 131.843 31.7272 131.898 29.8904V14.4201H132.31Z" fill="white"/>
<path d="M67.0548 14.1225C69.6863 14.1225 71.6395 14.9806 73.0288 16.7499C74.1332 18.2141 74.7028 20.0124 74.6428 21.8454V37.2094C74.6428 42.7993 80.1183 42.7993 80.1183 42.7993V21.6819C80.1183 17.8736 78.8925 14.7681 76.4653 12.4308C73.9768 10.0854 70.904 8.94531 67.0671 8.94531C63.2301 8.94531 60.2186 10.069 57.7628 12.3859C55.307 14.7027 54.0117 17.8001 54.0117 21.6819V42.8197H59.479V21.8454C59.4208 20.0094 59.9982 18.2095 61.1135 16.7499C62.4824 14.9806 64.4274 14.1225 67.0548 14.1225Z" fill="white"/>
<path d="M169.131 12.4086C166.647 10.0632 163.578 8.92313 159.733 8.92313C156.762 8.92313 154.27 9.61779 152.149 11.0112V0.0234375H146.678V42.8425H152.145V21.8436C152.087 20.0076 152.664 18.2078 153.78 16.7482C155.165 14.9788 157.11 14.1207 159.737 14.1207C162.365 14.1207 164.322 14.9788 165.707 16.7482C166.82 18.2089 167.397 20.0079 167.342 21.8436V37.2567C167.342 42.8425 172.817 42.8425 172.817 42.8425V21.6802C172.792 17.8514 171.558 14.7337 169.131 12.4086Z" fill="white"/>
<path d="M186.061 34.8653C186.549 35.6709 187.23 36.3422 188.042 36.8185C188.901 37.3171 189.838 37.6679 190.813 37.8564C191.858 38.0674 192.922 38.1728 193.988 38.171C194.872 38.1665 195.755 38.1038 196.632 37.983C197.509 37.8702 198.367 37.6364 199.181 37.2884C199.939 36.9698 200.6 36.4601 201.102 35.8092C201.626 35.0896 201.891 34.214 201.854 33.3248C201.886 32.709 201.759 32.0952 201.483 31.5437C201.207 30.9921 200.793 30.5217 200.28 30.1784C199.072 29.3934 197.745 28.8096 196.35 28.45C194.778 28.0087 193.068 27.6096 191.221 27.2527C189.465 26.9245 187.747 26.418 186.093 25.7409C184.59 25.14 183.244 24.2036 182.158 23.0031C181.107 21.829 180.582 20.1945 180.585 18.0997C180.544 16.6177 180.927 15.1549 181.688 13.8828C182.402 12.7263 183.371 11.748 184.52 11.0224C185.723 10.2682 187.041 9.7161 188.422 9.38797C189.831 9.03629 191.277 8.85654 192.729 8.85267C194.446 8.83671 196.16 8.99277 197.845 9.3185C199.31 9.6004 200.708 10.1548 201.968 10.953C203.173 11.7418 204.158 12.8246 204.828 14.0993C205.598 15.6364 206.028 17.3214 206.087 19.0395H200.705C200.677 18.1656 200.425 17.3135 199.973 16.5646C199.522 15.8157 198.886 15.1949 198.127 14.7613C197.393 14.3351 196.596 14.0276 195.765 13.8501C194.908 13.6608 194.032 13.5649 193.154 13.564C192.343 13.566 191.533 13.6302 190.731 13.7561C189.959 13.8658 189.208 14.0874 188.5 14.414C187.865 14.7011 187.305 15.1319 186.866 15.6725C186.426 16.2605 186.204 16.9823 186.236 17.7156C186.226 18.1459 186.307 18.5735 186.476 18.9696C186.644 19.3657 186.896 19.7211 187.213 20.012C187.939 20.6669 188.782 21.1797 189.697 21.5239C190.802 21.9489 191.939 22.285 193.097 22.5291C194.356 22.8015 195.614 23.0848 196.873 23.379C198.2 23.669 199.512 24.0263 200.803 24.4496C202.014 24.8319 203.16 25.3939 204.203 26.1168C205.182 26.8009 205.998 27.6924 206.594 28.7278C207.238 29.9249 207.552 31.2716 207.505 32.6301C207.569 34.3478 207.144 36.0483 206.279 37.5336C205.474 38.8213 204.374 39.8996 203.071 40.6799C201.693 41.4978 200.179 42.0624 198.601 42.3471C196.973 42.6585 195.319 42.8158 193.661 42.817C191.926 42.8245 190.196 42.6353 188.504 42.2531C186.953 41.9111 185.48 41.2819 184.161 40.398C182.893 39.5261 181.857 38.3594 181.141 36.9983C180.345 35.4132 179.919 33.6682 179.895 31.8946H185.243C185.253 32.939 185.535 33.9628 186.061 34.8653Z" fill="white"/>
<path d="M236.464 40.0673C234.031 41.9143 230.97 42.8364 227.278 42.8337C224.961 42.8895 222.658 42.4609 220.516 41.5751C218.664 40.781 217.017 39.5766 215.698 38.0529C214.36 36.471 213.363 34.6289 212.772 32.6427C212.1 30.41 211.73 28.0969 211.673 25.7657C211.645 23.4515 212.029 21.1506 212.805 18.9704C213.51 16.999 214.589 15.1826 215.984 13.6216C217.334 12.1205 218.983 10.9192 220.826 10.0952C222.757 9.24453 224.846 8.81547 226.956 8.83669C229.849 8.83669 232.25 9.43463 234.16 10.6305C236.021 11.7803 237.593 13.3418 238.756 15.1948C239.916 17.049 240.73 19.0979 241.159 21.2423C241.588 23.2903 241.768 25.3826 241.694 27.4737H217.337C217.287 28.8444 217.457 30.2142 217.839 31.5313C218.199 32.7817 218.822 33.9408 219.666 34.931C220.545 35.9468 221.642 36.7524 222.874 37.2887C224.324 37.9071 225.89 38.208 227.466 38.1713C229.733 38.1713 231.589 37.647 233.036 36.5982C234.482 35.5494 235.436 33.9544 235.896 31.8133H241.18C240.471 35.4663 238.899 38.2177 236.464 40.0673ZM235.177 19.1747C234.475 17.4976 233.289 16.0684 231.769 15.0702C230.25 14.0721 228.467 13.5506 226.649 13.5726C225.365 13.5541 224.09 13.8018 222.906 14.2999C221.828 14.7588 220.854 15.4332 220.046 16.2817C219.241 17.132 218.601 18.124 218.158 19.2074C217.691 20.3391 217.415 21.5403 217.341 22.7624H236.031C235.951 21.5242 235.662 20.3084 235.177 19.1665V19.1747Z" fill="white"/>
<path d="M266.667 15.2667C265.327 14.1334 263.524 13.5668 261.257 13.5668C259.578 13.5109 257.911 13.8791 256.411 14.6374C255.157 15.3116 254.087 16.2841 253.297 17.4691C252.495 18.7081 251.93 20.0854 251.63 21.5308C251.29 23.0904 251.121 24.6826 251.128 26.2789C251.125 27.7593 251.303 29.2345 251.659 30.6716C251.986 32.0293 252.55 33.3186 253.326 34.4799C254.084 35.5943 255.099 36.5107 256.284 37.1522C257.622 37.8547 259.118 38.2023 260.628 38.1615C263.273 38.1615 265.339 37.4696 266.827 36.0858C268.314 34.7019 269.227 32.7501 269.565 30.2303H275.036C274.453 34.2592 272.955 37.3647 270.541 39.5468C268.128 41.7288 264.845 42.8184 260.693 42.8157C258.444 42.8584 256.209 42.4528 254.119 41.6225C252.281 40.8804 250.641 39.7207 249.33 38.2351C248.014 36.7013 247.029 34.9123 246.437 32.9803C245.766 30.8105 245.437 28.5498 245.46 26.2789C245.445 23.9694 245.763 21.6698 246.404 19.4509C246.981 17.4339 247.953 15.5517 249.264 13.9142C250.564 12.3251 252.21 11.0558 254.078 10.2039C256.195 9.26131 258.495 8.79807 260.812 8.8473C262.565 8.83536 264.312 9.05799 266.005 9.50926C267.547 9.91497 268.999 10.6081 270.284 11.5523C271.533 12.4898 272.573 13.6785 273.336 15.0419C274.178 16.5893 274.692 18.2931 274.848 20.0475H269.311C268.892 17.9963 268.01 16.4026 266.667 15.2667Z" fill="white"/>
<path d="M344.739 9.60156V42.1357H339.391V9.60156H344.739Z" fill="white"/>
<path d="M342.066 6.07427C343.61 6.07427 344.861 4.82293 344.861 3.27932C344.861 1.73571 343.61 0.484375 342.066 0.484375C340.523 0.484375 339.271 1.73571 339.271 3.27932C339.271 4.82293 340.523 6.07427 342.066 6.07427Z" fill="white"/>
<path d="M359.83 14.9045H367.013V9.59247H359.413V6.07018C359.413 0.48438 353.942 0.484375 353.942 0.484375V9.59247H348.699V14.9045H353.938V30.5505C353.938 34.4078 355.2 37.5378 357.685 39.8506C360.169 42.1634 363.181 43.283 366.993 43.283V38.0895C364.366 38.0895 362.421 37.2314 361.035 35.4621C359.923 33.9993 359.346 32.1993 359.401 30.3625V14.9045H359.83Z" fill="white"/>
<path d="M287.333 9.60156V30.5555C287.275 32.3915 287.852 34.1913 288.967 35.6509C290.352 37.4203 292.297 38.2784 294.925 38.2784C297.552 38.2784 299.51 37.4203 300.899 35.6509C302.011 34.1895 302.587 32.3909 302.533 30.5555V15.1915C302.533 9.60156 308.009 9.60156 308.009 9.60156V30.7394C308.009 34.5477 306.783 37.6532 304.356 39.9905C301.867 42.3359 298.794 43.476 294.958 43.476C291.121 43.476 288.109 42.3523 285.653 40.0354C283.197 37.7186 281.906 34.6008 281.906 30.7394V9.60156H287.333Z" fill="white"/>
<path d="M337.437 13.0259C335.058 10.7826 332.125 9.6875 328.447 9.6875C324.769 9.6875 321.885 10.7663 319.539 12.9769C317.194 15.1875 315.943 18.1908 315.943 21.8888V42.1358H321.182V22.0645C321.12 20.3096 321.664 18.5869 322.722 17.1856C324.05 15.4899 325.914 14.6686 328.443 14.6686C330.972 14.6686 332.836 15.4858 334.164 17.1856L337.437 13.0259Z" fill="white"/>
<path d="M18.3469 44.182L0 25.835L18.3469 7.49219L36.6939 25.835L18.3469 44.182ZM7.72288 25.7942L18.3469 36.3937L28.971 25.7942L18.3469 15.1701L7.72288 25.7942Z" fill="white"/>
</g>
<defs>
<clipPath id="clip0_14877_187240">
<rect width="400" height="55.56" fill="white"/>
</clipPath>
</defs>
</svg>
