<svg width="323" height="146" viewBox="0 0 323 146" fill="none" xmlns="http://www.w3.org/2000/svg">
<path d="M161.41 80L121.41 40L161.41 0L201.41 40L161.41 80ZM126.688 40L161.41 74.7386L196.099 40L161.41 5.27801L126.688 40Z" fill="white"/>
<path d="M54.8363 122.383C54.8363 117.435 53.6698 113.522 51.3744 110.737C50.1861 109.323 48.6878 108.202 46.9958 107.462C45.3039 106.721 43.464 106.38 41.619 106.466C39.6998 106.392 37.7887 106.752 36.028 107.519C34.2672 108.286 32.7023 109.441 31.4497 110.897C29.0041 113.836 27.728 117.574 27.8655 121.396C27.8655 125.723 28.9756 129.232 31.1581 131.838C33.557 134.66 37.0847 136.118 41.619 136.118C44.7544 136.259 47.8389 135.289 50.3302 133.38C52.3588 131.596 53.8288 129.264 54.5635 126.664L54.8363 125.836H49.7187L49.587 126.334C49.2089 128.034 48.2003 129.526 46.7648 130.511C45.2432 131.533 43.4416 132.055 41.6096 132.007C40.3692 132.084 39.1275 131.879 37.9774 131.409C36.8272 130.938 35.7984 130.213 34.9681 129.288C33.5189 127.526 32.7303 125.314 32.7385 123.032H54.8269L54.8363 122.383ZM41.619 110.568C42.7976 110.501 43.9753 110.712 45.0572 111.184C46.139 111.656 47.0946 112.377 47.8467 113.286C49.1737 114.957 49.9053 117.023 49.9257 119.157H32.8326C33.1455 117.011 34.0439 114.993 35.429 113.324C36.1857 112.427 37.1357 111.713 38.2078 111.236C39.2798 110.758 40.4461 110.53 41.619 110.568Z" fill="white"/>
<path d="M68.5412 111.276H74.8442V106.638H68.1932V103.525C68.1932 98.6328 63.4049 98.6328 63.4049 98.6328V106.61H58.8047V111.248H63.4331V124.964C63.3695 126.476 63.6285 127.985 64.193 129.39C64.7574 130.794 65.6144 132.063 66.7068 133.111C67.8027 134.122 69.087 134.907 70.4864 135.422C71.8859 135.937 73.373 136.171 74.863 136.112V131.568C73.8714 131.632 72.879 131.457 71.97 131.055C71.061 130.654 70.2623 130.039 69.6419 129.263C68.6715 127.983 68.17 126.409 68.2214 124.804V111.276H68.5412Z" fill="white"/>
<path d="M11.4397 111.055C12.4312 110.991 13.4233 111.167 14.3322 111.568C15.2411 111.97 16.0398 112.584 16.6608 113.36C17.6326 114.639 18.1342 116.213 18.0813 117.819V131.224C18.0813 136.116 22.8696 136.116 22.8696 136.116V117.64C22.9283 116.143 22.6742 114.651 22.1235 113.257C21.5727 111.864 20.7375 110.602 19.6711 109.55C18.5682 108.523 17.273 107.726 15.8602 107.202C14.4474 106.679 12.945 106.441 11.4397 106.502C9.9503 106.441 8.46354 106.675 7.06527 107.192C5.667 107.709 4.3849 108.497 3.29299 109.512C2.19685 110.554 1.33665 111.818 0.770316 113.22C0.203982 114.622 -0.0553312 116.129 0.0098328 117.64V136.116H4.79816V117.781C4.74535 116.173 5.24686 114.595 6.21866 113.313C6.84504 112.546 7.64604 111.941 8.55449 111.548C9.46294 111.156 10.4524 110.986 11.4397 111.055Z" fill="white"/>
<path d="M100.771 109.521C99.6681 108.495 98.3729 107.697 96.9601 107.174C95.5473 106.651 94.0449 106.413 92.5396 106.473C90.1959 106.403 87.8852 107.039 85.9075 108.298V97.4609H81.1191V125.833H85.9075V117.781C85.85 116.172 86.352 114.593 87.328 113.312C87.99 112.588 88.7957 112.009 89.6938 111.613C90.592 111.217 91.5628 111.012 92.5443 111.012C93.5259 111.012 94.4967 111.217 95.3948 111.613C96.293 112.009 97.0987 112.588 97.7607 113.312C98.7346 114.594 99.2363 116.172 99.1812 117.781V131.233C99.1812 136.116 103.979 136.116 103.979 136.116V117.64C104.042 116.137 103.789 114.638 103.237 113.24C102.684 111.841 101.844 110.574 100.771 109.521Z" fill="white"/>
<path d="M135.513 112.07C135.094 111.098 134.449 110.24 133.632 109.567C132.756 108.894 131.75 108.407 130.678 108.137C129.448 107.827 128.184 107.676 126.915 107.686C125.282 107.615 123.653 107.894 122.136 108.504C121.146 108.928 120.264 109.572 119.559 110.386C119.047 110.977 118.68 111.679 118.486 112.437C118.368 112.896 118.292 113.365 118.26 113.838C118.186 115.002 118.493 116.158 119.135 117.131C119.741 117.918 120.547 118.528 121.468 118.899C122.536 119.331 123.633 119.686 124.751 119.962L128.881 121.035C130.001 121.336 131.12 121.637 132.221 121.976C133.253 122.27 134.238 122.71 135.147 123.283C136.007 123.825 136.736 124.551 137.282 125.409C137.861 126.438 138.141 127.607 138.091 128.786C138.126 130.085 137.8 131.368 137.15 132.493C136.54 133.488 135.714 134.334 134.733 134.967C133.699 135.619 132.559 136.084 131.365 136.341C130.13 136.621 128.868 136.763 127.602 136.764C123.745 136.764 120.835 135.92 118.872 134.233C116.909 132.546 115.924 129.887 115.918 126.256H117.056C117.056 129.511 117.963 131.9 119.775 133.424C121.587 134.948 124.2 135.704 127.611 135.691C128.7 135.69 129.785 135.571 130.847 135.334C131.906 135.107 132.92 134.707 133.848 134.149C134.739 133.624 135.498 132.904 136.068 132.041C136.673 131.108 136.978 130.011 136.943 128.899C136.995 127.8 136.688 126.714 136.068 125.804C135.47 125.002 134.702 124.34 133.82 123.866C132.818 123.333 131.753 122.929 130.65 122.662L127 121.722C125.608 121.383 124.394 121.072 123.35 120.781C122.385 120.513 121.442 120.173 120.528 119.765C119.434 119.337 118.507 118.568 117.884 117.573C117.275 116.416 116.986 115.117 117.047 113.81C117.061 112.962 117.23 112.123 117.545 111.336C117.917 110.43 118.498 109.624 119.239 108.984C120.125 108.209 121.154 107.615 122.268 107.234C123.737 106.755 125.276 106.53 126.821 106.566C130.038 106.566 132.588 107.291 134.46 108.758C136.332 110.226 137.282 112.521 137.282 115.776H136.153C136.196 114.51 135.978 113.248 135.513 112.07Z" fill="white"/>
<path d="M149.134 127.323C149.516 128.886 150.193 130.361 151.128 131.67C152.032 132.915 153.227 133.919 154.609 134.595C156.246 135.352 158.037 135.716 159.839 135.658C162.547 135.754 165.205 134.914 167.365 133.278C169.499 131.465 170.848 128.896 171.128 126.11H172.248C172.13 127.614 171.718 129.081 171.033 130.425C170.349 131.77 169.406 132.966 168.259 133.946C165.914 135.851 162.963 136.852 159.943 136.768C157.967 136.857 155.997 136.49 154.186 135.696C152.639 134.983 151.296 133.893 150.282 132.526C149.232 131.071 148.468 129.43 148.033 127.69C147.539 125.735 147.296 123.724 147.309 121.707C147.275 119.525 147.635 117.355 148.372 115.301C149.013 113.572 149.97 111.977 151.194 110.597C152.293 109.358 153.642 108.365 155.151 107.683C156.66 107 158.296 106.644 159.952 106.637C161.969 106.586 163.968 107.029 165.775 107.926C167.332 108.728 168.686 109.873 169.736 111.275C170.785 112.75 171.547 114.409 171.984 116.166C172.451 118.038 172.647 119.968 172.567 121.895H148.428C148.451 123.726 148.688 125.548 149.134 127.323ZM170.771 115.743C170.32 114.223 169.586 112.803 168.607 111.557C167.647 110.358 166.428 109.393 165.042 108.735C163.494 108.01 161.801 107.653 160.093 107.69C158.576 107.691 157.076 108.011 155.691 108.631C154.316 109.233 153.087 110.125 152.088 111.246C151.014 112.458 150.17 113.854 149.595 115.367C148.928 117.113 148.547 118.955 148.466 120.823H171.504C171.504 119.104 171.244 117.394 170.733 115.752L170.771 115.743Z" fill="white"/>
<path d="M204.778 130.639C204.176 131.892 203.324 133.009 202.276 133.922C201.225 134.843 200.004 135.549 198.682 136.001C197.228 136.506 195.697 136.754 194.157 136.735C192.268 136.771 190.395 136.375 188.682 135.578C187.133 134.843 185.763 133.781 184.665 132.464C183.557 131.108 182.717 129.553 182.191 127.883C181.624 126.075 181.342 124.19 181.354 122.295C181.345 120.273 181.617 118.259 182.163 116.312C182.67 114.504 183.509 112.807 184.637 111.307C185.764 109.854 187.205 108.674 188.852 107.855C190.717 106.961 192.767 106.52 194.835 106.566C196.151 106.561 197.459 106.768 198.71 107.177C199.917 107.574 201.042 108.186 202.031 108.983C203.028 109.797 203.855 110.797 204.468 111.928C205.151 113.191 205.582 114.574 205.738 116.001H204.609C204.435 114.708 204.017 113.46 203.376 112.323C202.812 111.332 202.069 110.455 201.185 109.736C200.316 109.045 199.328 108.522 198.268 108.193C197.156 107.851 195.998 107.68 194.835 107.685C192.815 107.623 190.813 108.079 189.021 109.012C187.494 109.834 186.185 111.008 185.201 112.436C184.231 113.866 183.527 115.459 183.122 117.14C182.697 118.819 182.479 120.544 182.473 122.276C182.467 123.992 182.724 125.699 183.235 127.337C183.708 128.882 184.46 130.326 185.455 131.599C186.434 132.851 187.681 133.867 189.106 134.571C190.691 135.334 192.436 135.708 194.195 135.663C195.554 135.677 196.906 135.46 198.193 135.023C199.395 134.605 200.508 133.967 201.476 133.141C202.475 132.286 203.29 131.237 203.874 130.059C204.458 128.881 204.797 127.596 204.872 126.284H206.001C205.866 127.798 205.451 129.275 204.778 130.639Z" fill="white"/>
<path d="M237.197 136.115V128.984H237.084C236.605 131.186 235.386 133.158 233.632 134.572C231.649 136.099 229.19 136.876 226.689 136.764C225.289 136.779 223.896 136.56 222.569 136.115C221.349 135.708 220.234 135.037 219.304 134.149C218.365 133.232 217.636 132.121 217.169 130.894C216.642 129.464 216.387 127.949 216.416 126.425V107.234H217.536V126.228C217.497 127.695 217.746 129.156 218.27 130.527C218.689 131.615 219.349 132.594 220.199 133.392C221.049 134.19 222.068 134.786 223.18 135.136C224.315 135.495 225.499 135.673 226.689 135.663C228.26 135.712 229.82 135.39 231.242 134.723C232.521 134.095 233.646 133.192 234.535 132.079C235.438 130.921 236.115 129.603 236.529 128.194C236.979 126.699 237.204 125.145 237.197 123.584V107.234H238.326V136.115H237.197Z" fill="white"/>
<path d="M250.121 136.115V107.234H251.241V114.375H251.353C251.615 113.297 252.033 112.263 252.595 111.308C253.171 110.335 253.935 109.487 254.844 108.815C255.844 108.064 256.968 107.494 258.164 107.131C259.631 106.694 261.16 106.503 262.689 106.566V107.686C260.933 107.535 259.166 107.816 257.543 108.504C256.161 109.114 254.94 110.039 253.978 111.204C253.025 112.371 252.318 113.718 251.899 115.165C251.448 116.656 251.22 118.207 251.222 119.765V136.115H250.121Z" fill="white"/>
<path d="M270.291 101.644V96H271.41V101.644H270.291ZM270.291 136.085V107.232H271.41V136.113L270.291 136.085Z" fill="white"/>
<path d="M286.303 130.494C286.267 131.353 286.391 132.211 286.67 133.025C286.868 133.544 287.191 134.006 287.61 134.37C287.966 134.662 288.396 134.848 288.852 134.906C289.298 134.962 289.748 134.991 290.197 134.991C290.762 134.991 291.27 134.991 291.712 134.991C292.031 134.991 292.348 134.943 292.653 134.85V135.969L291.665 136.082C291.355 136.082 290.724 136.138 289.896 136.138C288.681 136.17 287.496 135.763 286.557 134.991C285.616 134.219 285.183 132.808 285.183 130.748V108.359H279.896V107.23H285.183V98.1328H286.303V107.23H292.822V108.359H286.303V130.494Z" fill="white"/>
<path d="M322.822 107.231L309.501 141.954C309.211 142.796 308.754 143.57 308.156 144.23C307.667 144.752 307.074 145.165 306.416 145.444C305.742 145.708 305.031 145.867 304.308 145.914C303.537 145.971 302.728 145.999 301.863 145.999V144.917C302.803 144.917 303.669 144.917 304.365 144.832C304.987 144.794 305.596 144.641 306.162 144.381C306.692 144.119 307.153 143.735 307.507 143.261C307.972 142.615 308.342 141.905 308.608 141.154L310.687 135.811L298.664 107.213H299.84L311.308 134.569L321.656 107.203L322.822 107.231Z" fill="white"/>
</svg>