<svg width="427" height="54" viewBox="0 0 427 54" fill="none" xmlns="http://www.w3.org/2000/svg">
<g clip-path="url(#clip0_11781_46918)">
<path d="M141.86 28.05C141.86 22.79 140.62 18.63 138.18 15.67C136.917 14.1671 135.324 12.9756 133.525 12.1882C131.727 11.4008 129.771 11.0387 127.81 11.13C125.77 11.0514 123.738 11.434 121.867 12.2495C119.995 13.065 118.331 14.2923 117 15.84C114.4 18.9646 113.044 22.938 113.19 27C113.19 31.6 114.37 35.33 116.69 38.1C119.24 41.1 122.99 42.65 127.81 42.65C131.143 42.7996 134.422 41.7692 137.07 39.74C139.226 37.8431 140.789 35.3638 141.57 32.6L141.86 31.72H136.42L136.28 32.25C135.878 34.0564 134.806 35.6431 133.28 36.69C131.662 37.7756 129.747 38.3313 127.8 38.28C126.481 38.3619 125.161 38.1444 123.939 37.6439C122.716 37.1434 121.623 36.3729 120.74 35.39C119.199 33.5171 118.361 31.1651 118.37 28.74H141.85L141.86 28.05ZM127.81 15.49C129.063 15.4188 130.315 15.6433 131.465 16.1454C132.615 16.6474 133.63 17.4129 134.43 18.38C135.84 20.1561 136.618 22.3521 136.64 24.62H118.47C118.803 22.339 119.758 20.1937 121.23 18.42C122.034 17.4665 123.044 16.7075 124.184 16.2C125.323 15.6926 126.563 15.4498 127.81 15.49Z" fill="#06B6D4"/>
<path d="M156.43 16.2398H163.13V11.3098H156.06V7.9998C156.06 2.7998 150.97 2.7998 150.97 2.7998V11.2798H146.08V16.2098H151V30.7898C150.932 32.3976 151.208 34.0013 151.808 35.4944C152.408 36.9875 153.319 38.3359 154.48 39.4498C155.645 40.5248 157.01 41.3598 158.498 41.9071C159.985 42.4545 161.566 42.7034 163.15 42.6398V37.8098C162.096 37.8784 161.041 37.6915 160.075 37.2649C159.109 36.8384 158.26 36.1848 157.6 35.3598C156.569 33.9995 156.035 32.3261 156.09 30.6198V16.2398H156.43Z" fill="#06B6D4"/>
<path d="M95.7298 15.9999C96.7837 15.9322 97.8384 16.1195 98.8045 16.546C99.7706 16.9725 100.62 17.6256 101.28 18.4499C102.313 19.8095 102.846 21.4834 102.79 23.1899V37.4399C102.79 42.6399 107.88 42.6399 107.88 42.6399V22.9999C107.942 21.4088 107.672 19.8222 107.087 18.3414C106.501 16.8606 105.613 15.5182 104.48 14.3999C103.307 13.309 101.931 12.4611 100.429 11.905C98.927 11.3489 97.3299 11.0957 95.7298 11.1599C94.1465 11.0951 92.5661 11.3446 91.0797 11.8938C89.5934 12.443 88.2305 13.2812 87.0698 14.3599C85.9046 15.4672 84.9902 16.8112 84.3882 18.3016C83.7862 19.792 83.5105 21.3941 83.5798 22.9999V42.6399H88.6698V23.1499C88.6137 21.4403 89.1468 19.7633 90.1798 18.3999C90.8456 17.5853 91.6971 16.9423 92.6628 16.5247C93.6285 16.1071 94.6802 15.9271 95.7298 15.9999Z" fill="#06B6D4"/>
<path d="M190.69 14.3698C189.517 13.2789 188.141 12.4309 186.639 11.8748C185.137 11.3187 183.54 11.0655 181.94 11.1298C179.448 11.055 176.992 11.7309 174.89 13.0698V1.5498H169.8V31.7098H174.89V23.1498C174.829 21.4395 175.362 19.7609 176.4 18.3998C177.103 17.6294 177.96 17.0141 178.915 16.5931C179.869 16.1721 180.901 15.9547 181.945 15.9547C182.988 15.9547 184.02 16.1721 184.975 16.5931C185.93 17.0141 186.786 17.6294 187.49 18.3998C188.525 19.762 189.058 21.4398 189 23.1498V37.4498C189 42.6398 194.1 42.6398 194.1 42.6398V22.9998C194.167 21.4028 193.898 19.8094 193.311 18.3228C192.723 16.8363 191.831 15.4895 190.69 14.3698Z" fill="#06B6D4"/>
<path d="M227.62 17.0802C227.174 16.0472 226.489 15.1354 225.62 14.4202C224.688 13.7041 223.62 13.1868 222.48 12.9002C221.173 12.5707 219.828 12.4094 218.48 12.4202C216.744 12.3445 215.012 12.6411 213.4 13.2902C212.347 13.741 211.41 14.4248 210.66 15.2902C210.116 15.9184 209.726 16.6648 209.52 17.4702C209.394 17.9584 209.314 18.4572 209.28 18.9602C209.201 20.1969 209.528 21.4256 210.21 22.4602C210.854 23.2968 211.711 23.9459 212.69 24.3402C213.825 24.7986 214.992 25.1762 216.18 25.4702L220.57 26.6102C221.76 26.9302 222.95 27.2502 224.12 27.6102C225.218 27.9233 226.265 28.3913 227.23 29.0002C228.144 29.5764 228.92 30.3483 229.5 31.2602C230.115 32.3535 230.413 33.5968 230.36 34.8502C230.397 36.2307 230.051 37.5944 229.36 38.7902C228.711 39.8484 227.833 40.7472 226.79 41.4202C225.692 42.1133 224.48 42.6075 223.21 42.8802C221.898 43.1782 220.556 43.3291 219.21 43.3302C215.11 43.3302 212.017 42.4335 209.93 40.6402C207.843 38.8469 206.797 36.0202 206.79 32.1602H208C208 35.6202 208.963 38.1602 210.89 39.7802C212.817 41.4002 215.593 42.2035 219.22 42.1902C220.377 42.1891 221.531 42.0617 222.66 41.8102C223.786 41.5691 224.864 41.1433 225.85 40.5502C226.797 39.9928 227.604 39.2267 228.21 38.3102C228.853 37.3175 229.177 36.1522 229.14 34.9702C229.195 33.8017 228.869 32.6469 228.21 31.6802C227.574 30.8271 226.758 30.1239 225.82 29.6202C224.755 29.0534 223.623 28.6233 222.45 28.3402L218.57 27.3402C217.09 26.9802 215.8 26.6502 214.69 26.3402C213.665 26.055 212.662 25.6941 211.69 25.2602C210.528 24.805 209.543 23.9881 208.88 22.9302C208.232 21.7 207.925 20.319 207.99 18.9302C208.005 18.0286 208.185 17.1374 208.52 16.3002C208.915 15.3371 209.532 14.4806 210.32 13.8002C211.262 12.9765 212.356 12.3446 213.54 11.9402C215.102 11.4311 216.738 11.191 218.38 11.2302C221.8 11.2302 224.51 12.0002 226.5 13.5602C228.49 15.1202 229.5 17.5602 229.5 21.0202H228.3C228.345 19.6742 228.114 18.3332 227.62 17.0802Z" fill="white"/>
<path d="M242.1 33.2998C242.506 34.9606 243.226 36.5287 244.22 37.9198C245.18 39.2434 246.451 40.3113 247.92 41.0298C249.66 41.8346 251.564 42.2216 253.48 42.1598C256.358 42.2617 259.184 41.3682 261.48 39.6298C263.748 37.7026 265.182 34.9715 265.48 32.0098H266.67C266.546 33.6088 266.107 35.1676 265.379 36.597C264.652 38.0263 263.65 39.2982 262.43 40.3398C259.937 42.3647 256.801 43.429 253.59 43.3398C251.49 43.4338 249.396 43.0437 247.47 42.1998C245.826 41.4424 244.399 40.2835 243.32 38.8298C242.204 37.2839 241.393 35.5395 240.93 33.6898C240.405 31.611 240.146 29.4739 240.16 27.3298C240.124 25.0103 240.507 22.7035 241.29 20.5198C241.971 18.6816 242.989 16.9861 244.29 15.5198C245.459 14.2029 246.892 13.1473 248.496 12.4219C250.1 11.6964 251.839 11.3175 253.6 11.3098C255.744 11.256 257.869 11.7263 259.79 12.6798C261.445 13.5323 262.884 14.7496 264 16.2398C265.115 17.8083 265.926 19.5722 266.39 21.4398C266.886 23.4299 267.095 25.4806 267.01 27.5298H241.35C241.374 29.4758 241.626 31.4123 242.1 33.2998ZM265.1 20.9898C264.621 19.3745 263.841 17.8646 262.8 16.5398C261.78 15.2658 260.484 14.24 259.01 13.5398C257.365 12.77 255.565 12.3902 253.75 12.4298C252.137 12.4301 250.542 12.7708 249.07 13.4298C247.608 14.0701 246.302 15.0184 245.24 16.2098C244.099 17.4976 243.201 18.9816 242.59 20.5898C241.881 22.4461 241.476 24.4046 241.39 26.3898H265.88C265.879 24.5621 265.603 22.745 265.06 20.9998L265.1 20.9898Z" fill="white"/>
<path d="M301.25 36.8201C300.61 38.1521 299.705 39.3396 298.59 40.3101C297.473 41.2885 296.175 42.0392 294.77 42.5201C293.224 43.0562 291.596 43.3202 289.96 43.3001C287.952 43.3382 285.961 42.9175 284.14 42.0701C282.494 41.2893 281.037 40.1598 279.87 38.7601C278.692 37.3184 277.799 35.6657 277.24 33.8901C276.637 31.9681 276.337 29.9642 276.35 27.9501C276.341 25.8005 276.63 23.66 277.21 21.5901C277.749 19.6687 278.64 17.8646 279.84 16.2701C281.038 14.7254 282.57 13.471 284.32 12.6001C286.303 11.6503 288.482 11.181 290.68 11.2301C292.079 11.2255 293.47 11.4449 294.8 11.8801C296.083 12.3016 297.279 12.9521 298.33 13.8001C299.389 14.6645 300.269 15.7278 300.92 16.9301C301.646 18.2722 302.105 19.7428 302.27 21.2601H301.07C300.885 19.8854 300.441 18.5585 299.76 17.3501C299.16 16.2969 298.37 15.3644 297.43 14.6001C296.507 13.8659 295.456 13.3098 294.33 12.9601C293.148 12.5962 291.917 12.4141 290.68 12.4201C288.533 12.3535 286.405 12.839 284.5 13.8301C282.877 14.7045 281.486 15.9521 280.44 17.4701C279.409 18.9903 278.66 20.6841 278.23 22.4701C277.778 24.2551 277.546 26.0887 277.54 27.9301C277.533 29.7543 277.807 31.5687 278.35 33.3101C278.852 34.952 279.652 36.4876 280.71 37.8401C281.75 39.1711 283.076 40.2511 284.59 41.0001C286.276 41.8104 288.13 42.208 290 42.1601C291.445 42.1749 292.882 41.945 294.25 41.4801C295.528 41.0361 296.711 40.3578 297.74 39.4801C298.802 38.5706 299.669 37.4561 300.289 36.2034C300.909 34.9507 301.27 33.5856 301.35 32.1901H302.55C302.407 33.8005 301.966 35.3703 301.25 36.8201Z" fill="white"/>
<path d="M335.71 42.6399V35.0599H335.59C335.08 37.4006 333.785 39.4966 331.92 40.9999C329.812 42.6234 327.198 43.4487 324.54 43.3299C323.052 43.3463 321.571 43.113 320.16 42.6399C318.864 42.2076 317.679 41.4939 316.69 40.5499C315.691 39.5751 314.917 38.3944 314.42 37.0899C313.86 35.5703 313.589 33.9593 313.62 32.3399V11.9399H314.81V32.1299C314.769 33.6896 315.034 35.2423 315.59 36.6999C316.036 37.8564 316.737 38.8974 317.641 39.7457C318.545 40.594 319.628 41.2278 320.81 41.5999C322.016 41.9809 323.275 42.1699 324.54 42.1599C326.21 42.2122 327.868 41.8696 329.38 41.1599C330.74 40.4931 331.935 39.5334 332.88 38.3499C333.84 37.1188 334.559 35.7176 335 34.2199C335.478 32.6307 335.717 30.9794 335.71 29.3199V11.9399H336.91V42.6399H335.71Z" fill="white"/>
<path d="M349.45 42.6398V11.9398H350.64V19.5298H350.76C351.038 18.3842 351.482 17.2857 352.08 16.2698C352.692 15.2358 353.505 14.3347 354.47 13.6198C355.533 12.8217 356.728 12.2159 358 11.8298C359.559 11.3655 361.185 11.1628 362.81 11.2298V12.4198C360.943 12.259 359.065 12.5577 357.34 13.2898C355.871 13.9381 354.573 14.9209 353.55 16.1598C352.537 17.3995 351.785 18.8317 351.34 20.3698C350.861 21.9555 350.618 23.6032 350.62 25.2598V42.6398H349.45Z" fill="white"/>
<path d="M370.89 6V0H372.08V6H370.89ZM370.89 42.61V11.94H372.08V42.64L370.89 42.61Z" fill="white"/>
<path d="M387.91 36.67C387.872 37.5831 388.004 38.4953 388.3 39.36C388.51 39.9119 388.854 40.4031 389.3 40.79C389.678 41.1003 390.135 41.2979 390.62 41.36C391.094 41.4199 391.572 41.4499 392.05 41.45C392.65 41.45 393.19 41.45 393.66 41.45C393.999 41.4498 394.336 41.3993 394.66 41.3V42.49L393.61 42.61C393.28 42.61 392.61 42.67 391.73 42.67C390.439 42.7037 389.178 42.2705 388.18 41.45C387.18 40.63 386.72 39.13 386.72 36.94V13.14H381.1V11.94H386.72V2.27002H387.91V11.94H394.84V13.14H387.91V36.67Z" fill="white"/>
<path d="M426.73 11.9402L412.57 48.8502C412.262 49.7452 411.775 50.5685 411.14 51.2702C410.62 51.8247 409.99 52.2641 409.29 52.5602C408.573 52.8409 407.818 53.0096 407.05 53.0602C406.23 53.1202 405.37 53.1502 404.45 53.1502V52.0002C405.45 52.0002 406.37 52.0002 407.11 51.9102C407.771 51.8695 408.418 51.7068 409.02 51.4302C409.583 51.1514 410.073 50.7437 410.45 50.2402C410.944 49.5527 411.338 48.7985 411.62 48.0002L413.83 42.3202L401.05 11.9202H402.3L414.49 41.0002L425.49 11.9102L426.73 11.9402Z" fill="white"/>
<path d="M24.1 52.7L0 28.6L24.1 4.5L48.2 28.6L24.1 52.7ZM3.18 28.6L24.1 49.53L45 28.6L24.1 7.68L3.18 28.6Z" fill="#06B6D4"/>
</g>
<defs>
<clipPath id="clip0_11781_46918">
<rect width="426.73" height="53.15" fill="white"/>
</clipPath>
</defs>
</svg>
