<svg viewBox="0 0 48 48" xmlns="http://www.w3.org/2000/svg">
  <rect width="48" height="48" rx="10" fill="#0ea5e9" />
  <g fill="#ffffff" transform="translate(-37.97 11) scale(0.187)">
    <path d="M300.215 20.5056C300.215 37.3883 283.659 37.3883 283.659 37.3883V0H300.215V20.5056Z" />
    <path d="M339.648 52.2904C347.588 52.2904 353.5 54.8747 357.7 60.2366C360.933 64.3426 362.574 69.5354 362.574 75.646V122.116C362.574 139.023 379.106 139.023 379.106 139.023V75.1147C379.106 63.5939 375.389 54.1985 368.077 47.1459C360.547 40.045 351.28 36.6154 339.648 36.6154C328.016 36.6154 318.942 39.9967 311.533 47.001C304.004 53.9811 300.215 63.4489 300.215 75.1147V139.023H316.746V75.6702C316.746 69.5596 318.411 64.3909 321.669 60.2608C325.844 54.923 331.732 52.3146 339.672 52.3146H339.648V52.2904Z" />
  </g>
</svg>
