<svg width="64" height="64" viewBox="0 0 64 64" fill="none" xmlns="http://www.w3.org/2000/svg">
<g clip-path="url(#clip0_3081_5400)">
<path d="M38 6C38 4.4087 37.3679 2.88258 36.2426 1.75736C35.1174 0.632141 33.5913 0 32 0C30.4087 0 28.8826 0.632141 27.7574 1.75736C26.6321 2.88258 26 4.4087 26 6C26 7.5913 26.6321 9.11742 27.7574 10.2426C28.8826 11.3679 30.4087 12 32 12C33.5913 12 35.1174 11.3679 36.2426 10.2426C37.3679 9.11742 38 7.5913 38 6ZM38 58C38 56.4087 37.3679 54.8826 36.2426 53.7574C35.1174 52.6321 33.5913 52 32 52C30.4087 52 28.8826 52.6321 27.7574 53.7574C26.6321 54.8826 26 56.4087 26 58C26 59.5913 26.6321 61.1174 27.7574 62.2426C28.8826 63.3679 30.4087 64 32 64C33.5913 64 35.1174 63.3679 36.2426 62.2426C37.3679 61.1174 38 59.5913 38 58ZM6 38C7.5913 38 9.11742 37.3679 10.2426 36.2426C11.3679 35.1174 12 33.5913 12 32C12 30.4087 11.3679 28.8826 10.2426 27.7574C9.11742 26.6321 7.5913 26 6 26C4.4087 26 2.88258 26.6321 1.75736 27.7574C0.632141 28.8826 0 30.4087 0 32C0 33.5913 0.632141 35.1174 1.75736 36.2426C2.88258 37.3679 4.4087 38 6 38ZM64 32C64 30.4087 63.3679 28.8826 62.2426 27.7574C61.1174 26.6321 59.5913 26 58 26C56.4087 26 54.8826 26.6321 53.7574 27.7574C52.6321 28.8826 52 30.4087 52 32C52 33.5913 52.6321 35.1174 53.7574 36.2426C54.8826 37.3679 56.4087 38 58 38C59.5913 38 61.1174 37.3679 62.2426 36.2426C63.3679 35.1174 64 33.5913 64 32ZM17.8625 54.625C18.4198 54.0677 18.8619 53.4061 19.1635 52.678C19.4651 51.9498 19.6203 51.1694 19.6203 50.3812C19.6203 49.5931 19.4651 48.8127 19.1635 48.0845C18.8619 47.3564 18.4198 46.6948 17.8625 46.1375C17.3052 45.5802 16.6436 45.1381 15.9155 44.8365C15.1873 44.5349 14.4069 44.3797 13.6187 44.3797C12.027 44.3797 10.5005 45.012 9.375 46.1375C8.24949 47.263 7.61718 48.7895 7.61718 50.3812C7.61718 51.973 8.24949 53.4995 9.375 54.625C10.5005 55.7505 12.027 56.3828 13.6187 56.3828C15.2105 56.3828 16.737 55.7505 17.8625 54.625ZM17.8625 17.85C18.4475 17.2992 18.9159 16.6365 19.2399 15.9012C19.5639 15.166 19.7369 14.3731 19.7487 13.5697C19.7605 12.7663 19.6108 11.9687 19.3085 11.2243C19.0062 10.4798 18.5575 9.80365 17.9889 9.23591C17.4203 8.66817 16.7435 8.22042 15.9986 7.91921C15.2537 7.61801 14.4559 7.46949 13.6525 7.48246C12.8491 7.49543 12.0565 7.66963 11.3217 7.99473C10.587 8.31983 9.92495 8.7892 9.375 9.375C8.24949 10.5005 7.61718 12.027 7.61718 13.6187C7.61718 15.2105 8.24949 16.737 9.375 17.8625C10.5005 18.988 12.027 19.6203 13.6187 19.6203C15.2105 19.6203 16.737 18.988 17.8625 17.8625V17.85ZM46.1375 54.625C46.6948 55.1823 47.3564 55.6244 48.0845 55.926C48.8127 56.2276 49.5931 56.3828 50.3812 56.3828C51.1694 56.3828 51.9498 56.2276 52.678 55.926C53.4061 55.6244 54.0677 55.1823 54.625 54.625C55.1823 54.0677 55.6244 53.4061 55.926 52.678C56.2276 51.9498 56.3828 51.1694 56.3828 50.3812C56.3828 49.5931 56.2276 48.8127 55.926 48.0845C55.6244 47.3564 55.1823 46.6948 54.625 46.1375C54.0677 45.5802 53.4061 45.1381 52.678 44.8365C51.9498 44.5349 51.1694 44.3797 50.3812 44.3797C49.5931 44.3797 48.8127 44.5349 48.0845 44.8365C47.3564 45.1381 46.6948 45.5802 46.1375 46.1375C45.5802 46.6948 45.1381 47.3564 44.8365 48.0845C44.5349 48.8127 44.3797 49.5931 44.3797 50.3812C44.3797 51.1694 44.5349 51.9498 44.8365 52.678C45.1381 53.4061 45.5802 54.0677 46.1375 54.625Z" fill="url(#paint0_linear_3081_5400)"/>
</g>
<defs>
<linearGradient id="paint0_linear_3081_5400" x1="-4.17233e-07" y1="32" x2="64" y2="32" gradientUnits="userSpaceOnUse">
<stop stop-color="#06B6D4"/>
<stop offset="1" stop-color="#6366F1"/>
</linearGradient>
<clipPath id="clip0_3081_5400">
<rect width="64" height="64" fill="white"/>
</clipPath>
</defs>
</svg>
